<svg xmlns="http://www.w3.org/2000/svg" width="32.368" height="25.611" viewBox="0 0 32.368 25.611">
  <g id="Groupe_206" data-name="Groupe 206" transform="translate(-3.502 -2.431)">
    <path id="Tracé_220" data-name="Tracé 220" d="M36.3,20.171a9.117,9.117,0,0,1-5.019-1.707l-.423-.268.477-.15a20.981,20.981,0,0,0,8.079-5.063l.343.317a21.173,21.173,0,0,1-7.813,5.026c2.308,1.377,4.335,1.725,6.03,1.029,3.55-1.453,4.809-7,5.285-9.089.064-.282.115-.5.152-.632A5.762,5.762,0,0,0,43.646,8.6a2.319,2.319,0,0,0-.254.171c-1.229.909-2.679,1.3-5.568,2.1-.791.212-1.7.464-2.751.762-4.613,1.314-3.932,5.083-3.9,5.242l-.46.127c-.008-.044-.8-4.381,4.234-5.819,1.051-.3,1.96-.547,2.755-.765,2.92-.8,4.255-1.164,5.413-2.021.305-.226.6-.416.836-.249s.226.533-.092,1.62c-.036.127-.081.336-.144.609-.487,2.151-1.785,7.868-5.562,9.416A5.176,5.176,0,0,1,36.3,20.171Z" transform="translate(-8.247 -1.715)" fill="#ff7db8"/>
    <path id="Tracé_221" data-name="Tracé 221" d="M3.526,27.458l.03.573.422-.392a24.511,24.511,0,0,1,8.983-5.012c.212-.058.417-.118.632-.169l-.061-.26-.059-.261a24.323,24.323,0,0,0-9.431,4.935c-.064-3.076.74-5.291,2.391-6.587a5.37,5.37,0,0,1,.52-.348c.078-.047.155-.1.238-.146s.142-.068.214-.1c.017-.009.035-.016.05-.026a7.329,7.329,0,0,1,1.808-.6c.106-.02.215-.042.324-.058s.205-.028.307-.042a13.55,13.55,0,0,1,3.033-.012c.142.015.281.033.421.05.124.016.253.029.377.045a31.626,31.626,0,0,1,4.747,1.123c.321.095.565.171.719.206a6.6,6.6,0,0,1,1.166.352,2.922,2.922,0,0,1-.315.158c-1.6.707-2.811,1.923-5.227,4.344-.671.671-1.438,1.438-2.334,2.319-.183.18-.364.341-.543.492h.8c.038-.04.081-.071.118-.11.9-.882,1.666-1.65,2.338-2.322,2.446-2.448,3.56-3.568,5.065-4.234.4-.175.751-.362.724-.691s-.406-.526-1.666-.829c-.146-.036-.381-.107-.687-.2a33.505,33.505,0,0,0-4.361-1.065,5.954,5.954,0,0,0,1.369-1.818C17.647,12.557,14.349,6.711,13.1,4.509c-.157-.279-.28-.494-.345-.629-.571-1.167-.84-1.485-1.174-1.447s-.43.431-.515.858C10.747,4.91,9.9,6.245,8.036,9.175c-.506.8-1.087,1.709-1.748,2.77-2.384,3.839-.71,6.507.279,7.6-.157.1-.317.2-.467.314C4.207,21.351,3.34,23.9,3.526,27.458Zm6-8.981a8.451,8.451,0,0,0-1.787.472,6.138,6.138,0,0,0-.705.33c-.884-.917-2.583-3.359-.288-7.051.659-1.061,1.239-1.971,1.746-2.767C10.33,6.566,11.252,5.11,11.6,3.4a2.466,2.466,0,0,1,.082-.344,6.9,6.9,0,0,1,.6,1.063c.069.14.195.363.36.657,1.2,2.134,4.4,7.806,2.517,11.773a5.518,5.518,0,0,1-1.576,1.942,15.464,15.464,0,0,0-3.439-.1A22.769,22.769,0,0,0,12,10.037l-.267,0h-.269c0,.218-.015.435-.023.652A23.079,23.079,0,0,1,9.523,18.476Z" transform="translate(0 0)" fill="#ff7db8"/>
  </g>
</svg>